<?xml version="1.0" encoding="UTF-8"?><svg id="Layer_2" xmlns="http://www.w3.org/2000/svg" viewBox="0 0 904.89 152.5"><defs><style>.cls-1,.cls-2{fill:#416ce1;}.cls-3{fill:#080808;}.cls-2{opacity:.8;}</style></defs><g id="Layer_1-2"><g><path class="cls-3" d="M791.69,152.34h-21.72c-.32-.34-.16-.76-.16-1.14,0-49.97,0-99.95-.03-149.92,0-.99,.25-1.27,1.25-1.26,6.64,.04,13.28,.02,19.91,.03,.35,0,.72-.11,1.04,.14,2.46,3.2,4.89,6.42,7.37,9.6,3.29,4.22,6.63,8.4,9.93,12.61,3.67,4.67,7.31,9.36,10.97,14.04,5.09,6.52,10.18,13.05,15.28,19.57,5.6,7.14,11.23,14.26,16.82,21.4,5.59,7.14,11.14,14.31,16.73,21.45,4.34,5.56,8.71,11.1,13.06,16.64,.07,.09,.19,.13,.28,.19,.26,.03,.35-.11,.36-.34,.02-.4,0-.8,0-1.2,0-37.42,0-74.84,0-112.25,0-.36,.02-.72,0-1.08-.04-.54,.15-.84,.74-.78,.16,.02,.32,0,.48,0,6.56,0,13.11,.02,19.67-.02,.93,0,1.21,.23,1.2,1.19-.02,50.04-.02,100.07-.03,150.11,0,.34,.14,.72-.16,1.02-7,0-13.99-.02-20.99-.02-.67,0-1.07-.15-1.53-.77-2.35-3.12-4.83-6.14-7.24-9.22-3.05-3.91-6.04-7.86-9.1-11.76-2.67-3.41-5.4-6.78-8.08-10.19-2.76-3.53-5.48-7.1-8.23-10.64-2.09-2.68-4.24-5.31-6.33-8-2.23-2.86-4.43-5.75-6.69-8.58-2.73-3.42-5.39-6.89-8.12-10.3-3.09-3.87-6.05-7.85-9.1-11.75-2.67-3.41-5.41-6.77-8.08-10.19-2.77-3.53-5.47-7.11-8.24-10.65-2.09-2.68-4.24-5.32-6.34-7.99-1.4-1.78-2.77-3.58-4.17-5.36-.11-.14-.32-.2-.48-.3-.24,.45-.12,.94-.12,1.41,0,37.64,0,75.28-.02,112.92,0,.46,.18,.96-.16,1.38Z"/><path class="cls-3" d="M697.94,.13c0,6.83-.03,13.66,.02,20.49,0,1.05-.21,1.37-1.33,1.37-33.31-.03-66.61-.02-99.92-.06-1.27,0-1.53,.34-1.53,1.55,.05,12.34,.04,24.69,0,37.03,0,1.04,.23,1.31,1.3,1.31,16.39-.04,32.79-.02,49.18-.05,1.04,0,1.42,.19,1.41,1.34-.06,6.43-.06,12.86,0,19.29,0,1.07-.24,1.39-1.36,1.39-16.35-.04-32.71,0-49.06-.06-1.27,0-1.46,.37-1.45,1.52,.04,14.42,.03,28.84,.03,43.26q0,1.6,1.55,1.6c34.59,0,69.17,0,103.76-.03,1.23,0,1.5,.31,1.49,1.51-.06,6.39-.06,12.78,0,19.17,.01,1.15-.35,1.35-1.4,1.35-41.98-.03-83.97-.03-125.95,.01-1.27,0-1.47-.38-1.47-1.53,.03-49.65,.02-99.3,.02-148.95,0-.48-.02-.96-.03-1.44,.39-.3,.85-.15,1.27-.15,40.73,0,81.45,0,122.18,0,.43,0,.88-.08,1.3,.09Z"/><path class="cls-3" d="M516.54,.23c-1.49,3.25-2.99,6.5-4.45,9.77-2.04,4.56-4.03,9.14-6.05,13.7-3.61,8.12-7.23,16.23-10.84,24.35-4.04,9.1-8.07,18.2-12.12,27.29-4.59,10.31-9.2,20.62-13.79,30.93-4.61,10.36-9.19,20.74-13.79,31.1-2.1,4.72-4.24,9.41-6.31,14.14-.29,.65-.63,.84-1.31,.83-8.12-.02-16.23-.02-24.35,0-.61,0-.96-.09-1.23-.74-.91-2.21-1.93-4.37-2.89-6.56-1.35-3.08-2.68-6.17-4.03-9.26-1.23-2.83-2.46-5.65-3.7-8.47-1.32-3.01-2.66-6.03-3.99-9.04-1.21-2.75-2.44-5.49-3.65-8.24-1.32-3.01-2.64-6.02-3.95-9.04-1.26-2.9-2.51-5.8-3.78-8.7-1.32-3.01-2.67-6.02-3.99-9.03-1.22-2.78-2.42-5.58-3.64-8.36-1.33-3.01-2.68-6.01-4-9.03-1.24-2.82-2.44-5.66-3.68-8.49-1.31-2.98-2.64-5.94-3.95-8.92-1.27-2.89-2.52-5.8-3.79-8.69-1.32-3.01-2.66-6.02-3.98-9.04-1.55-3.53-3.08-7.07-4.64-10.59-1.34-3.05-2.7-6.09-4.05-9.13-1.2-2.72-2.39-5.43-3.58-8.15-.36-.81-.69-1.64-1.03-2.46,.09-.48,.48-.34,.77-.34,7.66,0,15.33,0,22.99,0,.2,0,.4-.02,.51,.2,.47,1.62,1.27,3.11,1.94,4.65,4.17,9.58,8.34,19.15,12.53,28.72,2.96,6.76,5.96,13.49,8.92,20.25,4.06,9.28,8.1,18.58,12.16,27.86,2.94,6.72,5.92,13.42,8.86,20.14,3.53,8.06,7.04,16.13,10.58,24.19,.13,.31,.21,.69,.7,.94,.8-1.74,1.62-3.47,2.39-5.22,1.3-2.92,2.59-5.85,3.84-8.79,1.68-3.95,3.44-7.86,5.16-11.79,1.33-3.04,2.69-6.07,4.05-9.1,1.07-2.36,2.04-4.77,3.1-7.13,1.35-2.99,2.7-5.98,4.02-8.98,1.39-3.15,2.79-6.3,4.13-9.47,.96-2.27,2.05-4.5,3.03-6.76,1.39-3.19,2.82-6.36,4.18-9.57,.97-2.27,2.02-4.51,3.05-6.75,1.47-3.2,2.87-6.44,4.3-9.66,1.31-2.96,2.64-5.92,3.89-8.9,1.34-3.17,2.77-6.3,4.13-9.46,.97-2.26,2.01-4.51,3.04-6.75,1.16-2.53,2.23-5.11,3.35-7.67,.14-.32,.33-.61,.49-.91,7.93-.06,15.86,0,23.79-.02,.23,0,.49-.07,.65,.19Z"/><path id="_Path_" class="cls-3" d="M121.43,126.33c-5.96-12.16-11.91-24.33-17.86-36.5-.28-.56-.94-1.2-.69-1.69,.27-.53,1.16-.22,1.77-.33,13.63-2.37,23.39-9.84,28.91-22.48,4.39-10.04,5.1-20.62,3.28-31.34-1.73-10.22-6.65-18.64-15.15-24.76C112.72,2.78,102.47,.13,91.6,.08,61.49-.05,31.38,.04,1.27,.02,.29,.02,0,.25,0,1.26,.03,51.28,.03,101.29,0,151.3c0,.96,.28,1.19,1.2,1.19,6.44-.04,12.88-.05,19.31,0,1.16,.01,1.53-.21,1.53-1.48-.05-20.25-.02-40.51-.06-60.76,0-1.19,.33-1.41,1.45-1.41,17.91,.04,35.83,.04,53.74,0,1.12,0,1.66,.34,2.14,1.34,9.84,20.46,19.72,40.91,29.58,61.36,.26,.53,.53,.78,1.15,.78,7.96-.02,15.91-.01,24.06-.01-.14-.34-.22-.56-.32-.77-4.12-8.41-8.25-16.81-12.36-25.22Zm-31.11-59.59c-22.31,.01-44.62,0-66.92,.04-1.2,0-1.41-.34-1.41-1.45,.04-14.02,.04-28.04,0-42.05,0-1.14,.35-1.33,1.39-1.33,11.55,.04,23.11,.02,34.66,.02v.04c11.51,0,23.03-.06,34.54,.03,4.17,.04,8.26,.86,12.1,2.6,5.71,2.58,9.26,6.92,10.5,13.08,1,4.99,.81,9.94-.87,14.75-2.63,7.51-8.26,11.57-15.78,13.35-2.69,.64-5.43,.92-8.19,.92Z"/><path class="cls-2" d="M259.72,27.58c.09,.18,36.49,81.9,54.54,122.62,.73,1.64,1.51,2.18,3.29,2.15,7.91-.11,15.82-.05,23.71-.05,.16-.31-.04-.52-.13-.72-1.9-4.27-3.81-8.53-5.72-12.8-4.88-10.94-9.75-21.88-14.63-32.82-4.64-10.4-9.29-20.79-13.92-31.19-4.42-9.91-8.81-19.82-13.23-29.72-6.52-14.62-13.06-29.24-19.56-43.87-.38-.85-.78-1.18-1.75-1.18-8.24,.04-16.47,.04-24.71,0l12.12,27.57"/><path class="cls-1" d="M245.91,1.08c-6.39,14.2-12.8,28.39-19.22,42.58-16.21,35.86-32.42,71.71-48.65,107.56-.43,.95-.24,1.09,.74,1.09,7.72-.03,15.43-.03,23.15,0,.75,0,1.11-.23,1.42-.92,3.45-7.66,6.94-15.31,10.41-22.96,15.13-33.33,30.26-66.66,45.39-99.99,.14-.31,.18-.71,.58-.87L247.6,0c-.89,0-1.32,.26-1.69,1.08Z"/></g></g></svg>